<svg width="129" height="128" viewBox="0 0 129 128" fill="none" xmlns="http://www.w3.org/2000/svg">
<g clip-path="url(#clip0_495_1325)">
<path fill-rule="evenodd" clip-rule="evenodd" d="M62.5737 10.1237C62.9769 10.1148 63.3813 10.1104 63.7866 10.1104H63.8024C63.8156 10.1104 63.8287 10.1106 63.8418 10.1111C63.8549 10.1106 63.868 10.1104 63.8813 10.1104H63.897C64.3024 10.1104 64.7067 10.1148 65.1099 10.1237C65.6989 10.1367 66.1658 10.6247 66.1528 11.2137C66.1398 11.8026 65.6518 12.2696 65.0628 12.2565C64.6753 12.248 64.2867 12.2437 63.897 12.2437H63.8813C63.868 12.2437 63.8549 12.2434 63.8418 12.243C63.8287 12.2434 63.8156 12.2437 63.8024 12.2437H63.7866C63.397 12.2437 63.0083 12.248 62.6208 12.2565C62.0318 12.2696 61.5439 11.8026 61.5308 11.2137C61.5178 10.6247 61.9847 10.1367 62.5737 10.1237ZM57.7459 11.5077C57.8243 12.0915 57.4145 12.6284 56.8307 12.7068C56.0602 12.8102 55.2951 12.9306 54.5358 13.0675C53.9561 13.1721 53.4013 12.7869 53.2968 12.2071C53.1922 11.6274 53.5775 11.0726 54.1572 10.9681C54.9479 10.8255 55.7446 10.7001 56.5468 10.5924C57.1307 10.514 57.6675 10.9238 57.7459 11.5077ZM69.9377 11.5077C70.0161 10.9238 70.5529 10.514 71.1368 10.5924C71.939 10.7001 72.7357 10.8255 73.5264 10.9681C74.1062 11.0726 74.4914 11.6274 74.3868 12.2071C74.2823 12.7869 73.7276 13.1721 73.1478 13.0675C72.3885 12.9306 71.6234 12.8102 70.853 12.7068C70.2691 12.6284 69.8593 12.0916 69.9377 11.5077ZM49.605 13.0904C49.7742 13.6546 49.4539 14.2493 48.8897 14.4185C48.146 14.6415 47.4094 14.8808 46.6802 15.1359C46.1242 15.3305 45.5157 15.0375 45.3211 14.4814C45.1266 13.9254 45.4196 13.3169 45.9757 13.1223C46.7351 12.8566 47.5023 12.6074 48.2769 12.3751C48.8411 12.2058 49.4357 12.5261 49.605 13.0904ZM78.0786 13.0904C78.2479 12.5261 78.8425 12.2058 79.4068 12.3751C80.1813 12.6074 80.9485 12.8566 81.708 13.1223C82.264 13.3169 82.5571 13.9254 82.3625 14.4814C82.1679 15.0375 81.5594 15.3305 81.0034 15.1359C80.2742 14.8808 79.5376 14.6415 78.794 14.4185C78.2297 14.2493 77.9094 13.6546 78.0786 13.0904ZM41.8147 15.9355C42.0707 16.4661 41.8481 17.1037 41.3175 17.3597C40.6189 17.6967 39.929 18.049 39.2483 18.4161C38.7297 18.6957 38.0827 18.502 37.8031 17.9835C37.5235 17.4649 37.7172 16.8179 38.2357 16.5383C38.9446 16.1561 39.663 15.7893 40.3905 15.4383C40.9211 15.1823 41.5587 15.4049 41.8147 15.9355ZM85.8689 15.9355C86.1249 15.4049 86.7625 15.1823 87.2931 15.4383C88.0206 15.7893 88.739 16.1561 89.4479 16.5383C89.9664 16.8179 90.1601 17.465 89.8805 17.9835C89.6009 18.502 88.9539 18.6957 88.4353 18.4161C87.7546 18.049 87.0647 17.6967 86.3661 17.3597C85.8355 17.1037 85.6129 16.4661 85.8689 15.9355ZM34.5672 19.9707C34.9031 20.4546 34.7831 21.1193 34.2991 21.4552C33.6624 21.8971 33.0361 22.3529 32.4207 22.8222C31.9522 23.1795 31.2829 23.0893 30.9257 22.6208C30.5685 22.1524 30.6586 21.4831 31.1271 21.1258C31.7678 20.6373 32.4198 20.1627 33.0827 19.7026C33.5666 19.3667 34.2312 19.4867 34.5672 19.9707ZM93.1165 19.9707C93.4524 19.4867 94.117 19.3667 94.601 19.7026C95.2638 20.1627 95.9158 20.6373 96.5565 21.1258C97.025 21.4831 97.1152 22.1524 96.7579 22.6208C96.4007 23.0893 95.7314 23.1795 95.263 22.8222C94.6475 22.3529 94.0212 21.8971 93.3845 21.4552C92.9006 21.1193 92.7806 20.4546 93.1165 19.9707ZM28.0395 25.0882C28.4466 25.5139 28.4316 26.1891 28.0058 26.5963C27.4461 27.1317 26.8983 27.6795 26.3629 28.2392C25.9558 28.665 25.2805 28.68 24.8548 28.2729C24.4291 27.8657 24.414 27.1905 24.8212 26.7647C25.3784 26.182 25.9486 25.6118 26.5313 25.0546C26.9571 24.6474 27.6323 24.6625 28.0395 25.0882ZM99.6442 25.0882C100.051 24.6625 100.727 24.6474 101.152 25.0546C101.735 25.6118 102.305 26.182 102.862 26.7647C103.27 27.1905 103.255 27.8657 102.829 28.2729C102.403 28.68 101.728 28.665 101.321 28.2392C100.785 27.6795 100.238 27.1317 99.6778 26.5963C99.252 26.1892 99.237 25.5139 99.6442 25.0882ZM22.3874 31.1591C22.8559 31.5163 22.9461 32.1856 22.5888 32.6541C22.1195 33.2695 21.6637 33.8958 21.2218 34.5325C20.8859 35.0165 20.2212 35.1365 19.7373 34.8006C19.2533 34.4646 19.1333 33.8 19.4692 33.3161C19.9293 32.6532 20.4039 32.0012 20.8924 31.3605C21.2497 30.892 21.919 30.8019 22.3874 31.1591ZM105.296 31.1591C105.765 30.8019 106.434 30.892 106.791 31.3605C107.28 32.0012 107.754 32.6532 108.214 33.3161C108.55 33.8 108.43 34.4646 107.946 34.8006C107.462 35.1365 106.798 35.0165 106.462 34.5325C106.02 33.8958 105.564 33.2695 105.095 32.6541C104.738 32.1856 104.828 31.5163 105.296 31.1591ZM17.7501 38.0365C18.2686 38.3161 18.4623 38.9631 18.1827 39.4817C17.8156 40.1624 17.4633 40.8523 17.1263 41.5509C16.8703 42.0815 16.2327 42.3041 15.7021 42.0481C15.1715 41.7921 14.9489 41.1545 15.2049 40.6239C15.5559 39.8964 15.9227 39.178 16.3049 38.4691C16.5845 37.9506 17.2316 37.7569 17.7501 38.0365ZM109.934 38.0365C110.452 37.7569 111.099 37.9506 111.379 38.4691C111.761 39.178 112.128 39.8964 112.479 40.6239C112.735 41.1545 112.512 41.7921 111.982 42.0481C111.451 42.3041 110.813 42.0815 110.557 41.5509C110.22 40.8523 109.868 40.1624 109.501 39.4817C109.221 38.9631 109.415 38.3161 109.934 38.0365ZM113.436 45.5545C113.992 45.36 114.6 45.653 114.795 46.209C115.06 46.9685 115.31 47.7357 115.542 48.5103C115.711 49.0745 115.391 49.6691 114.827 49.8384C114.262 50.0076 113.668 49.6873 113.499 49.1231C113.275 48.3794 113.036 47.6428 112.781 46.9136C112.587 46.3576 112.88 45.7491 113.436 45.5545ZM14.248 45.5545C14.8041 45.7491 15.0971 46.3576 14.9025 46.9136C14.6474 47.6428 14.4081 48.3794 14.1851 49.1231C14.0159 49.6873 13.4212 50.0076 12.857 49.8384C12.2927 49.6691 11.9724 49.0745 12.1417 48.5103C12.374 47.7357 12.6232 46.9685 12.8889 46.2091C13.0835 45.653 13.692 45.36 14.248 45.5545ZM115.71 53.5302C116.29 53.4256 116.844 53.8109 116.949 54.3906C117.092 55.1813 117.217 55.978 117.325 56.7802C117.403 57.3641 116.993 57.9009 116.409 57.9793C115.825 58.0577 115.289 57.6479 115.21 57.0641C115.107 56.2936 114.986 55.5285 114.849 54.7692C114.745 54.1895 115.13 53.6347 115.71 53.5302ZM11.9737 53.5302C12.5535 53.6347 12.9387 54.1895 12.8341 54.7692C12.6972 55.5285 12.5768 56.2936 12.4734 57.0641C12.395 57.6479 11.8582 58.0577 11.2743 57.9793C10.6904 57.901 10.2806 57.3641 10.359 56.7802C10.4667 55.978 10.5921 55.1813 10.7347 54.3906C10.8392 53.8109 11.394 53.4256 11.9737 53.5302ZM116.703 61.7642C117.292 61.7512 117.78 62.2181 117.793 62.8071C117.802 63.2103 117.807 63.6147 117.807 64.02V64.0358C117.807 64.049 117.806 64.0621 117.806 64.0752C117.806 64.0883 117.807 64.1014 117.807 64.1147V64.1304C117.807 64.5358 117.802 64.9401 117.793 65.3433C117.78 65.9323 117.292 66.3992 116.703 66.3862C116.114 66.3732 115.647 65.8852 115.66 65.2962C115.669 64.9087 115.673 64.5201 115.673 64.1304V64.1147C115.673 64.1014 115.674 64.0883 115.674 64.0752C115.674 64.0621 115.673 64.049 115.673 64.0358V64.02C115.673 63.6304 115.669 63.2417 115.66 62.8542C115.647 62.2652 116.114 61.7773 116.703 61.7642ZM10.9803 61.7643C11.5692 61.7773 12.0362 62.2653 12.0231 62.8542C12.0146 63.2418 12.0103 63.6304 12.0103 64.02V64.0358C12.0103 64.049 12.01 64.0621 12.0096 64.0752C12.01 64.0883 12.0103 64.1014 12.0103 64.1147V64.1304C12.0103 64.5201 12.0146 64.9087 12.0231 65.2962C12.0362 65.8852 11.5692 66.3732 10.9803 66.3862C10.3913 66.3992 9.90334 65.9323 9.89033 65.3433C9.88143 64.9401 9.87695 64.5358 9.87695 64.1304V64.1147C9.87695 64.1014 9.87719 64.0883 9.87767 64.0752C9.87719 64.0621 9.87695 64.049 9.87695 64.0358V64.02C9.87695 63.6147 9.88143 63.2104 9.89033 62.8071C9.90334 62.2182 10.3913 61.7513 10.9803 61.7643ZM11.2743 70.1711C11.8582 70.0927 12.395 70.5025 12.4734 71.0863C12.5768 71.8568 12.6972 72.6219 12.8341 73.3812C12.9387 73.9609 12.5535 74.5157 11.9737 74.6202C11.394 74.7248 10.8392 74.3396 10.7347 73.7598C10.5921 72.9691 10.4667 72.1724 10.359 71.3702C10.2806 70.7863 10.6904 70.2495 11.2743 70.1711ZM116.409 70.1711C116.993 70.2495 117.403 70.7863 117.325 71.3702C117.217 72.1724 117.092 72.9691 116.949 73.7598C116.844 74.3396 116.29 74.7248 115.71 74.6202C115.13 74.5157 114.745 73.961 114.849 73.3812C114.986 72.6219 115.107 71.8568 115.21 71.0863C115.289 70.5025 115.825 70.0927 116.409 70.1711ZM12.857 78.312C13.4212 78.1428 14.0159 78.4631 14.1851 79.0273C14.4081 79.771 14.6474 80.5076 14.9025 81.2368C15.0971 81.7928 14.8041 82.4013 14.248 82.5959C13.692 82.7904 13.0835 82.4974 12.8889 81.9414C12.6232 81.1819 12.374 80.4147 12.1417 79.6402C11.9724 79.0759 12.2927 78.4813 12.857 78.312ZM114.827 78.312C115.391 78.4813 115.711 79.0759 115.542 79.6402C115.31 80.4147 115.06 81.1819 114.795 81.9414C114.6 82.4974 113.992 82.7905 113.436 82.5959C112.88 82.4013 112.587 81.7928 112.781 81.2368C113.036 80.5076 113.275 79.771 113.499 79.0273C113.668 78.4631 114.262 78.1428 114.827 78.312ZM15.7021 86.1023C16.2327 85.8463 16.8703 86.0689 17.1263 86.5995C17.4633 87.2981 17.8156 87.988 18.1827 88.6687C18.4623 89.1873 18.2686 89.8343 17.7501 90.1139C17.2316 90.3935 16.5845 90.1998 16.3049 89.6813C15.9227 88.9724 15.5559 88.254 15.2049 87.5265C14.9489 86.9959 15.1715 86.3583 15.7021 86.1023ZM111.982 86.1023C112.512 86.3583 112.735 86.9959 112.479 87.5265C112.128 88.254 111.761 88.9724 111.379 89.6813C111.099 90.1998 110.452 90.3935 109.934 90.1139C109.415 89.8343 109.221 89.1873 109.501 88.6687C109.868 87.988 110.22 87.2981 110.557 86.5995C110.813 86.0689 111.451 85.8463 111.982 86.1023ZM19.7373 93.3499C20.2212 93.014 20.8859 93.134 21.2218 93.6179C21.6637 94.2546 22.1195 94.8809 22.5888 95.4964C22.9461 95.9648 22.8559 96.6341 22.3874 96.9913C21.919 97.3486 21.2497 97.2584 20.8924 96.7899C20.4039 96.1492 19.9293 95.4972 19.4692 94.8344C19.1333 94.3504 19.2533 93.6858 19.7373 93.3499ZM107.946 93.3499C108.43 93.6858 108.55 94.3504 108.214 94.8344C107.754 95.4972 107.28 96.1492 106.791 96.7899C106.434 97.2584 105.765 97.3486 105.296 96.9913C104.828 96.6341 104.738 95.9648 105.095 95.4964C105.564 94.8809 106.02 94.2546 106.462 93.6179C106.798 93.134 107.462 93.014 107.946 93.3499ZM24.8548 99.8776C25.2805 99.4704 25.9558 99.4854 26.3629 99.9112C26.8983 100.471 27.4461 101.019 28.0058 101.554C28.4316 101.961 28.4466 102.636 28.0395 103.062C27.6323 103.488 26.9571 103.503 26.5313 103.096C25.9486 102.539 25.3784 101.968 24.8212 101.386C24.414 100.96 24.4291 100.285 24.8548 99.8776ZM102.829 99.8776C103.255 100.285 103.27 100.96 102.862 101.386C102.305 101.968 101.735 102.539 101.152 103.096C100.727 103.503 100.051 103.488 99.6442 103.062C99.237 102.636 99.252 101.961 99.6778 101.554C100.238 101.019 100.785 100.471 101.321 99.9112C101.728 99.4854 102.403 99.4704 102.829 99.8776ZM30.9257 105.53C31.2829 105.061 31.9522 104.971 32.4207 105.328C33.0361 105.797 33.6624 106.253 34.2991 106.695C34.783 107.031 34.9031 107.696 34.5672 108.18C34.2312 108.664 33.5666 108.784 33.0827 108.448C32.4198 107.988 31.7678 107.513 31.1271 107.025C30.6586 106.667 30.5685 105.998 30.9257 105.53ZM96.7579 105.53C97.1152 105.998 97.025 106.667 96.5565 107.025C95.9158 107.513 95.2638 107.988 94.601 108.448C94.117 108.784 93.4524 108.664 93.1165 108.18C92.7806 107.696 92.9006 107.031 93.3845 106.695C94.0212 106.253 94.6475 105.797 95.263 105.328C95.7314 104.971 96.4007 105.061 96.7579 105.53ZM37.8031 110.167C38.0827 109.648 38.7297 109.455 39.2483 109.734C39.929 110.101 40.6189 110.454 41.3175 110.791C41.8481 111.047 42.0707 111.684 41.8147 112.215C41.5587 112.745 40.9211 112.968 40.3905 112.712C39.663 112.361 38.9446 111.994 38.2357 111.612C37.7172 111.332 37.5235 110.685 37.8031 110.167ZM89.8805 110.167C90.1601 110.685 89.9664 111.332 89.4479 111.612C88.739 111.994 88.0206 112.361 87.2931 112.712C86.7625 112.968 86.1249 112.745 85.8689 112.215C85.6129 111.684 85.8355 111.047 86.3661 110.791C87.0647 110.454 87.7546 110.101 88.4353 109.734C88.9539 109.455 89.6009 109.648 89.8805 110.167ZM45.3211 113.669C45.5157 113.113 46.1242 112.82 46.6802 113.014C47.4094 113.27 48.146 113.509 48.8897 113.732C49.4539 113.901 49.7742 114.496 49.605 115.06C49.4357 115.624 48.8411 115.945 48.2768 115.775C47.5023 115.543 46.7351 115.294 45.9756 115.028C45.4196 114.834 45.1266 114.225 45.3211 113.669ZM82.3625 113.669C82.557 114.225 82.264 114.834 81.708 115.028C80.9485 115.294 80.1813 115.543 79.4068 115.775C78.8425 115.945 78.2479 115.624 78.0786 115.06C77.9094 114.496 78.2297 113.901 78.7939 113.732C79.5376 113.509 80.2742 113.27 81.0034 113.014C81.5594 112.82 82.1679 113.113 82.3625 113.669ZM53.2968 115.943C53.4013 115.364 53.9561 114.978 54.5358 115.083C55.2951 115.22 56.0602 115.34 56.8307 115.444C57.4145 115.522 57.8243 116.059 57.7459 116.643C57.6675 117.227 57.1307 117.636 56.5468 117.558C55.7446 117.45 54.9479 117.325 54.1572 117.182C53.5774 117.078 53.1922 116.523 53.2968 115.943ZM74.3868 115.943C74.4914 116.523 74.1062 117.078 73.5264 117.182C72.7357 117.325 71.939 117.45 71.1368 117.558C70.5529 117.636 70.0161 117.227 69.9377 116.643C69.8593 116.059 70.2691 115.522 70.8529 115.444C71.6234 115.34 72.3885 115.22 73.1478 115.083C73.7275 114.978 74.2823 115.364 74.3868 115.943ZM61.5308 116.937C61.5438 116.348 62.0318 115.881 62.6208 115.894C63.0083 115.902 63.397 115.907 63.7866 115.907H63.8024C63.8156 115.907 63.8287 115.907 63.8418 115.907C63.8549 115.907 63.868 115.907 63.8813 115.907H63.897C64.2867 115.907 64.6753 115.902 65.0628 115.894C65.6518 115.881 66.1398 116.348 66.1528 116.937C66.1658 117.526 65.6989 118.014 65.1099 118.027C64.7067 118.036 64.3024 118.04 63.897 118.04H63.8813C63.868 118.04 63.8549 118.04 63.8418 118.039C63.8287 118.04 63.8156 118.04 63.8024 118.04H63.7866C63.3813 118.04 62.9769 118.036 62.5737 118.027C61.9847 118.014 61.5178 117.526 61.5308 116.937Z" fill="#304759"/>
<path d="M10.1057 71.7338C14.402 71.7338 17.8848 68.3046 17.8848 64.0744C17.8848 59.8443 14.402 56.415 10.1057 56.415C5.80946 56.415 2.32666 59.8443 2.32666 64.0744C2.32666 68.3046 5.80946 71.7338 10.1057 71.7338Z" fill="#142938"/>
<path fill-rule="evenodd" clip-rule="evenodd" d="M10.1055 57.482C6.38269 57.482 3.3931 60.4492 3.3931 64.0747C3.3931 67.7003 6.38269 70.6675 10.1055 70.6675C13.8283 70.6675 16.8179 67.7003 16.8179 64.0747C16.8179 60.4492 13.8283 57.482 10.1055 57.482ZM1.25977 64.0747C1.25977 59.2399 5.23578 55.3486 10.1055 55.3486C14.9752 55.3486 18.9512 59.2399 18.9512 64.0747C18.9512 68.9095 14.9752 72.8008 10.1055 72.8008C5.23578 72.8008 1.25977 68.9095 1.25977 64.0747Z" fill="#304759"/>
<path d="M56.1817 10.3386C56.1817 14.6349 59.6109 18.1177 63.8411 18.1177C68.0713 18.1177 71.5005 14.6349 71.5005 10.3386C71.5005 6.04236 68.0713 2.55957 63.8411 2.55957C59.6109 2.55957 56.1817 6.04236 56.1817 10.3386Z" fill="#142938"/>
<path fill-rule="evenodd" clip-rule="evenodd" d="M70.4341 10.3389C70.4341 6.61608 67.4669 3.6265 63.8413 3.6265C60.2158 3.6265 57.2486 6.61608 57.2486 10.3389C57.2486 14.0617 60.2158 17.0513 63.8413 17.0513C67.4669 17.0513 70.4341 14.0617 70.4341 10.3389ZM63.8413 1.49316C68.6761 1.49316 72.5674 5.46917 72.5674 10.3389C72.5674 15.2086 68.6761 19.1846 63.8413 19.1846C59.0065 19.1846 55.1153 15.2086 55.1153 10.3389C55.1153 5.46917 59.0065 1.49316 63.8413 1.49316Z" fill="#304759"/>
<path d="M117.577 71.7338C121.874 71.7338 125.356 68.3046 125.356 64.0744C125.356 59.8443 121.874 56.415 117.577 56.415C113.281 56.415 109.798 59.8443 109.798 64.0744C109.798 68.3046 113.281 71.7338 117.577 71.7338Z" fill="#142938"/>
<path fill-rule="evenodd" clip-rule="evenodd" d="M117.577 57.482C113.854 57.482 110.865 60.4492 110.865 64.0747C110.865 67.7003 113.854 70.6675 117.577 70.6675C121.3 70.6675 124.29 67.7003 124.29 64.0747C124.29 60.4492 121.3 57.482 117.577 57.482ZM108.731 64.0747C108.731 59.2399 112.707 55.3486 117.577 55.3486C122.447 55.3486 126.423 59.2399 126.423 64.0747C126.423 68.9095 122.447 72.8008 117.577 72.8008C112.707 72.8008 108.731 68.9095 108.731 64.0747Z" fill="#304759"/>
<path d="M56.1817 117.811C56.1817 122.108 59.6109 125.59 63.8411 125.59C68.0713 125.59 71.5005 122.108 71.5005 117.811C71.5005 113.515 68.0713 110.032 63.8411 110.032C59.6109 110.032 56.1817 113.515 56.1817 117.811Z" fill="#142938"/>
<path fill-rule="evenodd" clip-rule="evenodd" d="M70.434 117.811C70.434 114.088 67.4669 111.098 63.8413 111.098C60.2158 111.098 57.2486 114.088 57.2486 117.811C57.2486 121.533 60.2158 124.523 63.8413 124.523C67.4669 124.523 70.434 121.533 70.434 117.811ZM63.8413 108.965C68.6761 108.965 72.5674 112.941 72.5674 117.811C72.5674 122.68 68.6761 126.656 63.8413 126.656C59.0065 126.656 55.1153 122.68 55.1153 117.811C55.1153 112.941 59.0065 108.965 63.8413 108.965Z" fill="#304759"/>
<path fill-rule="evenodd" clip-rule="evenodd" d="M97.0501 72.0702V45.1452C97.051 40.5114 94.1341 36.3748 89.7577 34.8038L72.9338 28.7703C67.1351 26.6912 60.7942 26.6912 54.9955 28.7703L38.1495 34.8148C33.777 36.3842 30.861 40.5154 30.8574 45.1452V72.0702C30.8574 86.0602 50.5056 96.4127 59.5407 100.446C60.9283 101.07 62.4323 101.392 63.9536 101.392C65.475 101.392 66.979 101.07 68.3665 100.446C77.4017 96.4127 97.0501 86.0384 97.0501 72.0702Z" fill="#00AAFF"/>
<path fill-rule="evenodd" clip-rule="evenodd" d="M97.0501 72.0702V45.1452C97.051 40.5114 94.1341 36.3748 89.7577 34.8038L72.9338 28.7703C67.1351 26.6912 60.7942 26.6912 54.9955 28.7703L38.1495 34.8148C33.777 36.3842 30.861 40.5154 30.8574 45.1452V72.0702C30.8574 86.0602 50.5056 96.4127 59.5407 100.446C60.9283 101.07 62.4323 101.392 63.9536 101.392C65.475 101.392 66.979 101.07 68.3665 100.446C77.4017 96.4127 97.0501 86.0384 97.0501 72.0702Z" fill="#00AAFF"/>
<path d="M50.1704 54.8945H77.7283V78.8889H50.1704V54.8945Z" fill="white"/>
<path fill-rule="evenodd" clip-rule="evenodd" d="M64.068 56.7271C60.6291 56.7271 57.5656 56.8629 55.0627 57.0354C52.6886 57.1991 50.8632 59.1635 50.6927 61.7201C50.5715 63.539 50.4871 65.4552 50.4871 67.2478C50.4871 69.0406 50.5715 70.9568 50.6927 72.7755C50.8632 75.332 52.6886 77.2967 55.0627 77.4604C61.0593 77.8716 67.077 77.8716 73.0735 77.4604C75.4475 77.2967 77.2731 75.332 77.4433 72.7755C77.5646 70.9568 77.6489 69.0406 77.6489 67.2478C77.6489 65.4552 77.5646 63.539 77.4433 61.7201C77.2731 59.1635 75.4475 57.1991 73.0735 57.0354C70.0761 56.8299 67.0725 56.727 64.068 56.7271ZM54.8167 52.8356C50.5139 53.1323 47.1335 56.7531 46.8226 61.4169C46.6971 63.2992 46.6069 65.3225 46.6069 67.2478C46.6069 69.1733 46.6971 71.1966 46.8226 73.0789C47.1335 77.7427 50.5139 81.3635 54.8167 81.6602C60.9771 82.083 67.1592 82.083 73.3196 81.6602C77.6224 81.3635 81.0028 77.7427 81.3136 73.0789C81.4389 71.1966 81.5293 69.1733 81.5293 67.2478C81.5293 65.3225 81.4389 63.2992 81.3136 61.4169C81.0028 56.7531 77.6224 53.1323 73.3196 52.8356C67.1592 52.4129 60.9771 52.4129 54.8167 52.8356Z" fill="white"/>
<path fill-rule="evenodd" clip-rule="evenodd" d="M54.3199 51.0711C54.3199 45.7042 58.6706 41.3535 64.0375 41.3535C69.4044 41.3535 73.7551 45.7042 73.7551 51.0711V58.845C73.759 59.1027 73.7116 59.3586 73.6157 59.5978C73.5198 59.837 73.3773 60.0548 73.1964 60.2384C73.0156 60.4221 72.8 60.5679 72.5623 60.6674C72.3245 60.767 72.0693 60.8182 71.8116 60.8182C71.5539 60.8182 71.2987 60.767 71.061 60.6674C70.8232 60.5679 70.6076 60.4221 70.4268 60.2384C70.2459 60.0548 70.1034 59.837 70.0075 59.5978C69.9116 59.3586 69.8642 59.1027 69.8681 58.845V51.0711C69.8681 47.8508 67.2576 45.2405 64.0375 45.2405C60.8174 45.2405 58.2071 47.8508 58.2071 51.0711V58.845C58.2099 59.102 58.1616 59.3569 58.0652 59.5952C57.9688 59.8334 57.826 60.0501 57.6453 60.2329C57.4645 60.4156 57.2493 60.5606 57.0122 60.6596C56.775 60.7586 56.5205 60.8096 56.2635 60.8096C56.0065 60.8096 55.752 60.7586 55.5149 60.6596C55.2777 60.5606 55.0625 60.4156 54.8817 60.2329C54.701 60.0501 54.5583 59.8334 54.4618 59.5952C54.3654 59.3569 54.3172 59.102 54.3199 58.845V51.0711Z" fill="white"/>
<path fill-rule="evenodd" clip-rule="evenodd" d="M65.9815 69.6789C67.1432 69.0069 67.925 67.7507 67.925 66.312C67.925 64.1652 66.1846 62.4248 64.038 62.4248C61.8913 62.4248 60.1509 64.1652 60.1509 66.312C60.1509 67.7507 60.9327 69.0069 62.0944 69.6789V72.1424C62.0943 72.3976 62.1446 72.6504 62.2422 72.8862C62.3399 73.122 62.4831 73.3363 62.6636 73.5168C62.8441 73.6972 63.0584 73.8404 63.2942 73.938C63.53 74.0357 63.7828 74.0859 64.038 74.0858C64.2933 74.0859 64.546 74.0356 64.7818 73.938C65.0176 73.8403 65.2319 73.6972 65.4123 73.5167C65.5928 73.3362 65.736 73.122 65.8336 72.8861C65.9313 72.6503 65.9815 72.3976 65.9815 72.1424V69.6789Z" fill="#00AAFF"/>
<path d="M124.073 39.0796C121.629 39.0796 119.647 41.0614 119.647 43.5061C119.647 45.9508 121.629 47.9326 124.073 47.9326C126.518 47.9326 128.5 45.9508 128.5 43.5061C128.5 41.0614 126.518 39.0796 124.073 39.0796Z" fill="#00AAFF"/>
<path d="M6.42677 36.1123C4.41423 36.1123 2.78273 37.7438 2.78273 39.7564C2.78273 41.7689 4.41423 43.4004 6.42677 43.4004C8.43931 43.4004 10.0708 41.7689 10.0708 39.7564C10.0708 37.7438 8.43931 36.1123 6.42677 36.1123Z" fill="#00AAFF"/>
<path d="M19.4864 111.975C17.1945 111.975 15.3365 110.117 15.3365 107.825C15.3365 105.533 17.1945 103.675 19.4864 103.675C21.7783 103.675 23.6362 105.533 23.6362 107.825C23.6362 110.117 21.7783 111.975 19.4864 111.975Z" fill="#00AAFF"/>
<path d="M105.606 84.0385C104.537 84.0385 103.67 83.1714 103.67 82.1018C103.67 81.0321 104.537 80.165 105.606 80.165C106.676 80.165 107.543 81.0321 107.543 82.1018C107.543 83.1714 106.676 84.0385 105.606 84.0385Z" fill="#00AAFF"/>
<path d="M83.5622 106.144C82.187 106.144 81.0722 105.029 81.0722 103.654C81.0722 102.279 82.187 101.164 83.5622 101.164C84.9374 101.164 86.0522 102.279 86.0522 103.654C86.0522 105.029 84.9374 106.144 83.5622 106.144Z" fill="#304759"/>
<path d="M4.09678 87.5867C2.11045 87.5867 0.500207 85.9765 0.500207 83.9901C0.500207 82.0038 2.11045 80.3936 4.09678 80.3936C6.08312 80.3936 7.69336 82.0038 7.69336 83.9901C7.69336 85.9765 6.08312 87.5867 4.09678 87.5867Z" fill="#304759"/>
<path d="M94.3095 122.388C92.7976 122.388 91.5721 121.162 91.5721 119.651C91.5721 118.139 92.7976 116.913 94.3095 116.913C95.8213 116.913 97.0469 118.139 97.0469 119.651C97.0469 121.162 95.8213 122.388 94.3095 122.388Z" fill="#304759"/>
<path d="M103.765 18.0601C102.956 18.0601 102.3 17.3493 102.3 16.4724C102.3 15.5956 102.956 14.8848 103.765 14.8848C104.575 14.8848 105.231 15.5956 105.231 16.4724C105.231 17.3493 104.575 18.0601 103.765 18.0601Z" fill="#304759"/>
<path d="M35.4747 92.1626C35.8653 93.6205 35.0001 95.1191 33.5422 95.5097C32.0843 95.9004 30.5858 95.0352 30.1951 93.5773C29.8045 92.1194 30.6697 90.6208 32.1276 90.2302C33.5855 89.8395 35.084 90.7047 35.4747 92.1626Z" fill="#304759"/>
<path d="M24.6907 16.475C24.0626 16.475 23.5534 15.9657 23.5534 15.3376C23.5534 14.7094 24.0626 14.2002 24.6907 14.2002C25.3189 14.2002 25.8281 14.7094 25.8281 15.3376C25.8281 15.9657 25.3189 16.475 24.6907 16.475Z" fill="#304759"/>
<path d="M118.107 100.617C116.562 100.617 115.31 99.6154 115.31 98.3798C115.31 97.1442 116.562 96.1426 118.107 96.1426C119.651 96.1426 120.903 97.1442 120.903 98.3798C120.903 99.6154 119.651 100.617 118.107 100.617Z" fill="#304759"/>
<path d="M85.8632 24.3283C86.146 25.3836 85.5197 26.4684 84.4643 26.7512C83.4089 27.034 82.3241 26.4077 82.0413 25.3523C81.7585 24.297 82.3848 23.2122 83.4402 22.9294C84.4956 22.6466 85.5804 23.2729 85.8632 24.3283Z" fill="#304759"/>
</g>
<defs>
<clipPath id="clip0_495_1325">
<rect width="128" height="128" fill="white" transform="translate(0.5)"/>
</clipPath>
</defs>
</svg>
