<svg width="40" height="40" viewBox="0 0 40 40" fill="none" xmlns="http://www.w3.org/2000/svg">
<rect width="40" height="40" rx="20" fill="white"/>
<path d="M20.0042 4.46609e-07C16.0484 -0.000835346 12.1812 1.17143 8.89168 3.36855C5.60214 5.56567 3.03803 8.68895 1.52363 12.3434C0.00923077 15.9978 -0.387439 20.0193 0.383788 23.8992C1.15502 27.7791 3.0595 31.3432 5.85638 34.1406C8.65326 36.9381 12.2169 38.8433 16.0966 39.6154C19.9764 40.3874 23.9979 39.9916 27.6527 38.478C31.3075 36.9644 34.4313 34.4009 36.6291 31.1118C38.8269 27.8228 40 23.9558 40 20C40 14.6964 37.8934 9.60996 34.1436 5.85936C30.3938 2.10875 25.3078 0.001121 20.0042 4.46609e-07ZM19.0746 29.8373C17.9837 30.6154 16.679 31.0375 15.3391 31.0458C13.0361 31.0458 10.898 29.7781 9.31756 27.4836C7.87698 25.279 7.07813 22.7172 7.01036 20.0845C7.00853 20.0359 7.02122 19.9878 7.0468 19.9464C7.07239 19.905 7.10972 19.8722 7.15403 19.8521L8.71752 19.1464C8.75465 19.1292 8.79556 19.1217 8.83639 19.1246C8.87722 19.1276 8.91662 19.1409 8.95088 19.1633C8.98514 19.1857 9.01311 19.2165 9.03217 19.2527C9.05123 19.289 9.06074 19.3294 9.0598 19.3704C9.00855 21.8254 9.69126 24.2399 11.0205 26.3047C12.2037 28.0287 13.7376 28.9753 15.3391 28.9753C16.2079 28.9644 17.0542 28.6984 17.7731 28.2104C17.8253 28.1766 17.8884 28.164 17.9496 28.1749C18.0108 28.1859 18.0655 28.2198 18.1027 28.2696C18.4087 28.6906 18.7448 29.0889 19.1084 29.4612C19.134 29.4866 19.1537 29.5173 19.1661 29.5512C19.1784 29.5851 19.1832 29.6213 19.1799 29.6572C19.1767 29.6931 19.1656 29.7279 19.1474 29.759C19.1292 29.7902 19.1043 29.8169 19.0746 29.8373ZM30.674 27.4667C29.0936 29.7655 26.9554 31.0289 24.6482 31.0289C22.341 31.0289 20.2071 29.7612 18.6267 27.4667C17.0604 25.0561 16.251 22.232 16.3026 19.3577C16.3026 16.5392 17.9252 14.3334 19.9958 14.3334C22.0663 14.3334 23.689 16.5392 23.689 19.3577C23.7189 21.8191 23.1381 24.2495 21.9987 26.4314C21.9801 26.4666 21.9533 26.4967 21.9204 26.5192C21.8876 26.5416 21.8498 26.5558 21.8103 26.5603C21.7707 26.5649 21.7307 26.5598 21.6936 26.5454C21.6565 26.5311 21.6234 26.5079 21.5973 26.4779C21.4065 26.2604 21.2287 26.0318 21.0649 25.7934C20.8762 25.5222 20.7041 25.24 20.5493 24.9482C20.5326 24.9148 20.5239 24.8779 20.5239 24.8405C20.5239 24.8031 20.5326 24.7662 20.5493 24.7327C21.281 23.0406 21.6495 21.2138 21.6311 19.3704C21.6311 17.9759 20.9381 16.4124 20.0085 16.4124C19.0788 16.4124 18.3816 17.9717 18.3816 19.3704C18.3257 21.8256 19.004 24.2415 20.3296 26.3089C21.5128 28.033 23.0467 28.9795 24.6482 28.9795C26.2497 28.9795 27.7879 28.033 28.9668 26.3089C30.298 24.245 30.9808 21.8299 30.9275 19.3746C30.9808 16.9193 30.298 14.5042 28.9668 12.4403C28.609 11.9055 28.1828 11.4196 27.6991 10.9951C27.6647 10.9687 27.6379 10.9337 27.6214 10.8935C27.605 10.8534 27.5995 10.8096 27.6055 10.7666C27.6115 10.7236 27.6288 10.683 27.6557 10.6489C27.6825 10.6148 27.7179 10.5885 27.7583 10.5726L29.3176 9.87112C29.3631 9.85059 29.4137 9.84445 29.4628 9.85352C29.5119 9.86258 29.5571 9.88641 29.5922 9.92182C29.9917 10.3347 30.3564 10.7799 30.6824 11.2529C32.2468 13.6644 33.056 16.4879 33.0065 19.3619C33.0527 22.2354 32.2405 25.0573 30.674 27.4667Z" fill="#00AAFF"/>
</svg>
