<svg width="129" height="128" viewBox="0 0 129 128" fill="none" xmlns="http://www.w3.org/2000/svg">
<g clip-path="url(#clip0_495_1964)">
<path fill-rule="evenodd" clip-rule="evenodd" d="M74.0688 87.855L86.3835 100.789C87.2947 101.746 88.8671 101.572 89.5469 100.439L93.3727 94.0626C93.5416 93.7811 93.7772 93.5455 94.0587 93.3766L100.517 89.5015C101.625 88.837 101.821 87.3127 100.919 86.3889L91.3617 76.6055" fill="#304759"/>
<path fill-rule="evenodd" clip-rule="evenodd" d="M53.9549 87.855L41.6403 100.789C40.7291 101.746 39.1567 101.572 38.4768 100.439L34.6513 94.0626C34.4824 93.7811 34.2468 93.5455 33.9653 93.3766L27.5067 89.5015C26.3992 88.837 26.2025 87.3128 27.105 86.3889L36.6621 76.6055" fill="#304759"/>
<path fill-rule="evenodd" clip-rule="evenodd" d="M66.2502 24.3176L71.7093 21.6492C74.2281 20.4184 77.2739 21.4045 78.588 23.8847L81.438 29.2519C81.8098 29.9506 82.336 30.5554 82.9766 31.0204C83.6173 31.4855 84.3554 31.7984 85.1352 31.9356L91.1216 32.9857C93.885 33.4712 95.7636 36.0569 95.3721 38.8344L94.5213 44.8489C94.4103 45.6325 94.4798 46.4312 94.7245 47.1839C94.9692 47.9367 95.3826 48.6236 95.9332 49.1923L100.157 53.5584C102.108 55.572 102.108 58.7713 100.157 60.7885L95.9332 65.1546C95.3826 65.7233 94.9692 66.4102 94.7245 67.1628C94.4798 67.9155 94.4103 68.7142 94.5213 69.4978L95.3721 75.5125C95.7636 78.29 93.885 80.8757 91.1216 81.3612L85.1352 82.4113C84.3554 82.5485 83.6173 82.8615 82.9766 83.3265C82.336 83.7915 81.8098 84.3963 81.438 85.095L78.588 90.4622C77.2739 92.9388 74.232 93.9285 71.7093 92.6977L66.2502 90.0293C65.5392 89.682 64.7582 89.5014 63.9668 89.5014C63.1754 89.5014 62.3945 89.682 61.6834 90.0293L56.2241 92.6977C53.7055 93.9285 50.6595 92.9424 49.3456 90.4622L46.4954 85.0912C46.1236 84.3924 45.5974 83.7876 44.9568 83.3227C44.3161 82.8577 43.5779 82.5448 42.7982 82.4077L36.812 81.3576C34.0486 80.8721 32.1697 78.2864 32.5613 75.5086L33.4123 69.4942C33.5233 68.7105 33.4538 67.9118 33.2091 67.1591C32.9644 66.4064 32.551 65.7194 32.0004 65.1507L27.7761 60.7849C25.8259 58.7713 25.8259 55.572 27.7761 53.5545L32.0004 49.1887C32.551 48.62 32.9644 47.933 33.2091 47.1803C33.4538 46.4276 33.5233 45.6289 33.4123 44.8452L32.5652 38.8308C32.1697 36.0569 34.0523 33.4673 36.8159 32.9857L42.8021 31.9356C43.5811 31.7978 44.3185 31.4846 44.9584 31.0196C45.5983 30.5546 46.1239 29.9501 46.4954 29.2519L49.3456 23.8847C50.6595 21.4082 53.7016 20.4184 56.2241 21.6492L61.6834 24.3176C62.3945 24.665 63.1754 24.8455 63.9668 24.8455C64.7582 24.8455 65.5392 24.665 66.2502 24.3176Z" fill="#00AAFF"/>
<path d="M64.0359 79.8198C76.4498 79.8198 86.5132 69.7564 86.5132 57.3425C86.5132 44.9287 76.4498 34.8652 64.0359 34.8652C51.622 34.8652 41.5586 44.9287 41.5586 57.3425C41.5586 69.7564 51.622 79.8198 64.0359 79.8198Z" fill="white" stroke="url(#paint0_linear_495_1964)"/>
<path fill-rule="evenodd" clip-rule="evenodd" d="M63.7402 65.0839L69.394 68.0539C70.4949 68.6326 71.7817 67.6983 71.5709 66.4713L70.4919 60.1758L75.0663 55.7211C75.9567 54.8527 75.4658 53.3395 74.2357 53.1602L67.9153 52.2415L65.0901 46.5124C64.5393 45.3956 62.9507 45.3956 62.4 46.5124L59.5748 52.2415L53.2513 53.1632C52.021 53.3425 51.5303 54.856 52.4207 55.7242L56.9951 60.1791L55.9159 66.4743C55.7051 67.7013 56.9919 68.6359 58.0931 68.0569L63.7465 65.0869H63.7402V65.0839Z" fill="url(#paint1_linear_495_1964)"/>
<path d="M14.7645 102.677C13.2709 102.677 12.0602 103.888 12.0602 105.382C12.0602 106.875 13.2709 108.086 14.7645 108.086C16.258 108.086 17.4688 106.875 17.4688 105.382C17.4688 103.888 16.258 102.677 14.7645 102.677Z" fill="#00AAFF"/>
<path d="M100.279 101.326C98.6255 101.326 97.285 102.6 97.285 104.171C97.285 105.742 98.6255 107.016 100.279 107.016C101.933 107.016 103.273 105.742 103.273 104.171C103.273 102.6 101.933 101.326 100.279 101.326Z" fill="#00AAFF"/>
<path d="M6.26129 53.4462C4.77651 53.4462 3.57287 52.2425 3.57287 50.7578C3.57287 49.273 4.77651 48.0693 6.26129 48.0693C7.74606 48.0693 8.94971 49.273 8.94971 50.7578C8.94971 52.2425 7.74606 53.4462 6.26129 53.4462Z" fill="#00AAFF"/>
<path d="M99.9798 27.555C98.4915 27.555 97.2849 26.4155 97.2849 25.0099C97.2849 23.6043 98.4915 22.4648 99.9798 22.4648C101.468 22.4648 102.675 23.6043 102.675 25.0099C102.675 26.4155 101.468 27.555 99.9798 27.555Z" fill="#485D6C"/>
<path d="M52.0803 115.383C50.8855 115.383 49.9169 114.415 49.9169 113.22C49.9169 112.025 50.8855 111.057 52.0803 111.057C53.2751 111.057 54.2437 112.025 54.2437 113.22C54.2437 114.415 53.2751 115.383 52.0803 115.383Z" fill="#485D6C"/>
<path d="M76.8133 113.641C76.0997 113.641 75.5212 113.062 75.5212 112.349C75.5212 111.635 76.0997 111.057 76.8133 111.057C77.527 111.057 78.1055 111.635 78.1055 112.349C78.1055 113.062 77.527 113.641 76.8133 113.641Z" fill="#485D6C"/>
<path d="M83.471 17.9476C82.4515 17.9476 81.6251 17.1212 81.6251 16.1018C81.6251 15.0823 82.4515 14.2559 83.471 14.2559C84.4905 14.2559 85.3169 15.0823 85.3169 16.1018C85.3169 17.1212 84.4905 17.9476 83.471 17.9476Z" fill="#485D6C"/>
<path d="M64.3662 99.996C64.624 100.958 64.053 101.947 63.0909 102.205C62.1287 102.463 61.1397 101.892 60.8819 100.93C60.624 99.9675 61.195 98.9785 62.1572 98.7207C63.1194 98.4629 64.1084 99.0339 64.3662 99.996Z" fill="#485D6C"/>
<path d="M2.89968 72.8403C1.57439 72.8403 0.500035 71.7659 0.500035 70.4407C0.500035 69.1154 1.57439 68.041 2.89968 68.041C4.22496 68.041 5.29932 69.1154 5.29932 70.4407C5.29932 71.7659 4.22496 72.8403 2.89968 72.8403Z" fill="#485D6C"/>
<path d="M23.5018 65.125C22.4823 65.125 21.6559 64.4639 21.6559 63.6485C21.6559 62.833 22.4823 62.1719 23.5018 62.1719C24.5212 62.1719 25.3477 62.833 25.3477 63.6485C25.3477 64.4639 24.5212 65.125 23.5018 65.125Z" fill="#485D6C"/>
<path d="M127.528 99.0637C128.065 101.066 126.876 103.125 124.874 103.661C122.871 104.198 120.813 103.009 120.276 101.007C119.74 99.0043 120.928 96.9459 122.931 96.4093C124.933 95.8727 126.992 97.0611 127.528 99.0637Z" fill="#485D6C"/>
<path d="M13.7833 77.9554H13.8317C14.1176 82.0068 17.1305 82.0693 17.1305 82.0693C17.1305 82.0693 13.8083 82.134 13.8083 86.8154C13.8083 82.134 10.4858 82.0693 10.4858 82.0693C10.4858 82.0693 13.4976 82.0068 13.7833 77.9554ZM40.1257 12.6396H40.1728C40.4521 16.7615 43.3949 16.825 43.3949 16.825C43.3949 16.825 40.15 16.8908 40.15 21.6537C40.15 16.8908 36.9048 16.825 36.9048 16.825C36.9048 16.825 39.8465 16.7615 40.1257 12.6396ZM113.132 52.7796H113.179C113.459 56.9015 116.402 56.965 116.402 56.965C116.402 56.965 113.157 57.031 113.157 61.7936C113.157 57.031 109.912 56.965 109.912 56.965C109.912 56.965 112.853 56.9015 113.132 52.7796Z" fill="#485D6C"/>
</g>
<defs>
<linearGradient id="paint0_linear_495_1964" x1="21.3161" y1="56.8913" x2="63.5846" y2="99.1598" gradientUnits="userSpaceOnUse">
<stop stop-color="#00AAFF"/>
<stop offset="0.96875" stop-color="#23D2B5"/>
</linearGradient>
<linearGradient id="paint1_linear_495_1964" x1="40.8499" y1="56.7222" x2="62.5222" y2="79.3527" gradientUnits="userSpaceOnUse">
<stop stop-color="#00AAFF"/>
<stop offset="0.96875" stop-color="#23D2B5"/>
</linearGradient>
<clipPath id="clip0_495_1964">
<rect width="128" height="128" fill="white" transform="translate(0.5)"/>
</clipPath>
</defs>
</svg>
